# Blender 4.2.1 LTS
# www.blender.org
mtllib Portal.mtl
o Plane
v -1.000000 -1.000000 -0.000000
v 1.000000 -1.000000 -0.000000
v -1.000000 1.000000 0.000000
v 1.000000 1.000000 0.000000
v -1.000000 1.000000 -0.010000
v -1.000000 -1.000000 -0.010000
v 1.000000 -1.000000 -0.010000
v 1.000000 1.000000 -0.010000
vn -0.0000 -0.0000 1.0000
vn -0.0000 -0.0000 -1.0000
vn -0.0000 1.0000 -0.0000
vn -0.0000 -1.0000 -0.0000
vn 1.0000 -0.0000 -0.0000
vn -1.0000 -0.0000 -0.0000
vt 0.000000 0.000000
vt 1.000000 0.000000
vt 1.000000 1.000000
vt 0.000000 1.000000
s 0
usemtl Material
f 1/1/1 2/2/1 4/3/1 3/4/1
f 6/1/2 5/4/2 8/3/2 7/2/2
f 4/3/3 8/3/3 5/4/3 3/4/3
f 1/1/4 6/1/4 7/2/4 2/2/4
f 2/2/5 7/2/5 8/3/5 4/3/5
f 3/4/6 5/4/6 6/1/6 1/1/6
